<svg xmlns="http://www.w3.org/2000/svg" version="1.1" xmlns:xlink="http://www.w3.org/1999/xlink" width="512" height="512" x="0" y="0" viewBox="0 0 512 512" style="enable-background:new 0 0 512 512" xml:space="preserve" class=""><g><circle cx="256" cy="256" r="245" fill="#172a7d" opacity="1" data-original="#172a7d" class=""></circle><path fill="#4f66d0" d="M255.744 475.828a7.5 7.5 0 0 1 0-15c112.976 0 204.889-91.913 204.889-204.889 0-92.611-62.499-174.012-151.985-197.951a7.5 7.5 0 0 1 3.877-14.491c96.036 25.691 163.108 113.05 163.108 212.441 0 121.248-98.642 219.89-219.889 219.89z" opacity="1" data-original="#4f66d0" class=""></path><g fill="#4f66d0"><path d="M43.563 276.857c-.169 0-.738-.049-.945-.677-1.882-5.708-3.904-9.902-6.644-13.184a219.096 219.096 0 0 0 14.283 70.993 20.364 20.364 0 0 1 13.818-5.841 204.1 204.1 0 0 1-13.078-64.954c-2.66 3.253-4.643 7.389-6.489 12.986-.207.628-.776.677-.945.677zM208.146 48.804a7.501 7.501 0 0 0-9.184-5.307C107.636 67.929 42.507 148.131 36.339 241.414c2.553-3.213 4.483-7.272 6.279-12.72.207-.628.776-.677.945-.677s.738.049.945.677c1.923 5.833 3.988 10.09 6.821 13.403 5.87-86.788 66.512-161.371 151.51-184.11a7.499 7.499 0 0 0 5.307-9.183zM138.309 423.747a205.746 205.746 0 0 1-57.993-62.18 20.42 20.42 0 0 1-13.151 7.248 220.76 220.76 0 0 0 62.525 67.209 7.467 7.467 0 0 0 4.303 1.362 7.5 7.5 0 0 0 4.316-13.639z" fill="#4f66d0" opacity="1" data-original="#4f66d0" class=""></path></g><g fill="#6c7fd8"><path d="M166.826 125.051c37.023-25.112 84.381-34.52 130.803-21.783 3.996 1.096 8.121-1.254 9.217-5.249s-1.254-8.121-5.249-9.217c-51.436-14.111-103.922-3.39-144.664 24.854a20.52 20.52 0 0 1 9.893 11.395zM412.298 232.649c2.801-3.47 4.882-7.904 6.86-13.967.211-.648.784-.699.954-.699s.743.05.955.699c1.842 5.648 3.774 9.883 6.292 13.242a173.372 173.372 0 0 0-16.195-52.509 7.5 7.5 0 0 0-13.454 6.632 158.395 158.395 0 0 1 14.588 46.602zM161.811 383.433c-17.581-12.969-32.42-29.611-43.572-49.196-20.95-36.791-26.336-79.473-15.167-120.185 6.763-24.65 19.035-46.338 35.115-64.113a20.526 20.526 0 0 1-9.903-11.398c-18.212 19.707-32.102 43.927-39.678 71.542-12.229 44.576-6.335 91.303 16.597 131.576 12.381 21.743 28.921 40.167 48.53 54.449a24.06 24.06 0 0 1 8.078-12.675zM350.617 382.596c-27.027 20.199-60.274 31.675-94.918 31.673a158.041 158.041 0 0 1-41.84-5.659 160.677 160.677 0 0 1-12.982-4.172 23.925 23.925 0 0 1-6.147 13.721 175.745 175.745 0 0 0 15.161 4.917c15.289 4.194 30.666 6.196 45.805 6.195 39.121-.001 76.618-13.371 106.692-36.802-2.856-4.392-6.475-7.388-11.771-9.873zM421.066 269.582c-.211.648-.784.698-.955.698-.17 0-.743-.05-.954-.698-1.548-4.746-3.161-8.49-5.129-11.563a157.933 157.933 0 0 1-5.614 39.804c-6.79 24.75-19.133 46.514-35.307 64.33 2.549 4.942 5.672 8.336 10.227 11.045 18.149-19.682 31.988-43.856 39.546-71.405a172.94 172.94 0 0 0 6.153-47.454c-3.377 3.641-5.738 8.409-7.967 15.243z" fill="#6c7fd8" opacity="1" data-original="#6c7fd8"></path></g><g fill="#8795de"><path d="M353.799 175.736a20.55 20.55 0 0 1-10.639 10.691c15.214 19.093 24.32 43.257 24.32 69.511 0 61.611-50.125 111.736-111.736 111.736a7.5 7.5 0 0 0 0 15c69.883 0 126.736-56.854 126.736-126.736 0-30.404-10.766-58.34-28.681-80.202zM315.515 161.574c1.573-5.001 5.024-9.171 9.519-11.699-19.927-13.063-43.735-20.673-69.29-20.673-69.882 0-126.736 56.854-126.736 126.736a7.5 7.5 0 0 0 15 0c0-61.612 50.125-111.736 111.736-111.736 21.969 0 42.475 6.377 59.771 17.372z" fill="#8795de" opacity="1" data-original="#8795de"></path></g><circle cx="255.744" cy="255.938" r="70.298" fill="#fea613" opacity="1" data-original="#fea613" class=""></circle><path fill="#fe9901" d="M232.962 298.742c-13.352 3.02-26.675-5.267-29.837-18.619-2.929-12.367 3.886-24.758 15.466-29.133 2.153-30.933 24.311-56.342 53.631-63.388a70.419 70.419 0 0 0-16.479-1.962c-38.824 0-70.298 31.474-70.298 70.298s31.473 70.298 70.298 70.298c5.678 0 11.191-.691 16.479-1.962-15.861-3.811-29.62-13.005-39.26-25.532z" opacity="1" data-original="#fe9901"></path><circle cx="335.016" cy="167.692" r="21.438" fill="#97d729" opacity="1" data-original="#97d729"></circle><path fill="#8bc727" d="M330 167.692c0-8.93 5.463-16.579 13.227-19.802a21.367 21.367 0 0 0-8.211-1.636c-11.84 0-21.438 9.598-21.438 21.438s9.598 21.438 21.438 21.438c2.91 0 5.681-.586 8.211-1.636-7.764-3.223-13.227-10.872-13.227-19.802z" opacity="1" data-original="#8bc727"></path><circle cx="64.562" cy="348.562" r="21.438" fill="#97d729" opacity="1" data-original="#97d729"></circle><path fill="#8bc727" d="M60 348.562c0-8.843 5.357-16.432 13-19.709a21.35 21.35 0 0 0-8.438-1.73c-11.84 0-21.438 9.598-21.438 21.438S52.722 370 64.562 370A21.35 21.35 0 0 0 73 368.27c-7.643-3.277-13-10.865-13-19.708z" opacity="1" data-original="#8bc727"></path><circle cx="255.744" cy="34.9" r="34.9" fill="#925cb4" opacity="1" data-original="#925cb4"></circle><path fill="#814ba2" d="M248 34.9c0-14.458 8.792-26.863 21.322-32.16A34.797 34.797 0 0 0 255.744 0c-19.275 0-34.9 15.625-34.9 34.9s15.625 34.9 34.9 34.9c4.816 0 9.404-.976 13.578-2.74C256.792 61.763 248 49.358 248 34.9z" opacity="1" data-original="#814ba2"></path><circle cx="177" cy="402" r="25" fill="#fed402" opacity="1" data-original="#fed402" class=""></circle><path fill="#fac600" d="M172 402c0-10.251 6.172-19.055 15-22.914A24.9 24.9 0 0 0 177 377c-13.807 0-25 11.193-25 25s11.193 25 25 25c3.557 0 6.937-.748 10-2.086-8.828-3.859-15-12.663-15-22.914z" opacity="1" data-original="#fac600"></path><circle cx="276.863" cy="239.137" r="26.863" fill="#fed402" opacity="1" data-original="#fed402" class=""></circle><circle cx="227.452" cy="274.362" r="25" fill="#fb8801" opacity="1" data-original="#fb8801" class=""></circle><circle cx="147.555" cy="131.795" r="21.438" fill="#fd4755" opacity="1" data-original="#fd4755"></circle><path fill="#fb2b3a" d="M142.123 131.795c0-9.008 5.563-16.706 13.435-19.879a21.364 21.364 0 0 0-8.003-1.56c-11.84 0-21.438 9.598-21.438 21.438s9.598 21.438 21.438 21.438c2.832 0 5.529-.562 8.003-1.56-7.872-3.171-13.435-10.868-13.435-19.877z" opacity="1" data-original="#fb2b3a"></path><path fill="#fea613" d="M449.847 74.992c-14.14 4.612-19.243 9.715-23.855 23.855-.604 1.851-3.206 1.851-3.81 0-4.612-14.14-9.715-19.243-23.855-23.855-1.851-.604-1.851-3.206 0-3.81 14.14-4.612 19.243-9.715 23.855-23.855.604-1.851 3.206-1.851 3.81 0 4.612 14.14 9.715 19.243 23.855 23.855 1.851.604 1.851 3.206 0 3.81z" opacity="1" data-original="#fea613" class=""></path><path fill="#fe9901" d="M411.47 64.868c-3.308 2.542-7.498 4.473-13.143 6.314-1.851.604-1.851 3.206 0 3.81 14.14 4.612 19.243 9.715 23.855 23.855.604 1.851 3.206 1.851 3.81 0 1.822-5.587 3.731-9.749 6.234-13.042-4.17-11.775-9.084-16.755-20.756-20.937z" opacity="1" data-original="#fe9901"></path><path fill="#fea613" d="M191.673 318.992c-14.14 4.612-19.243 9.715-23.855 23.855-.604 1.851-3.206 1.851-3.81 0-4.612-14.14-9.715-19.243-23.855-23.855-1.851-.604-1.851-3.206 0-3.81 14.14-4.612 19.243-9.715 23.855-23.855.604-1.851 3.206-1.851 3.81 0 4.612 14.14 9.715 19.243 23.855 23.855 1.851.604 1.851 3.206 0 3.81z" opacity="1" data-original="#fea613" class=""></path><path fill="#fe9901" d="M153.349 308.827c-3.316 2.562-7.52 4.504-13.196 6.355-1.851.604-1.851 3.206 0 3.81 14.14 4.612 19.243 9.715 23.855 23.855.604 1.851 3.206 1.851 3.81 0 1.851-5.676 3.793-9.88 6.355-13.196-4.172-11.707-9.117-16.652-20.824-20.824z" opacity="1" data-original="#fe9901"></path><path fill="#fea613" d="M445.872 246.036c-14.14 4.612-19.243 9.715-23.855 23.855-.604 1.851-3.206 1.851-3.81 0-4.612-14.14-9.715-19.243-23.855-23.855-1.851-.604-1.851-3.206 0-3.81 14.14-4.612 19.243-9.715 23.855-23.855.604-1.851 3.206-1.851 3.81 0 4.612 14.14 9.715 19.243 23.855 23.855 1.851.604 1.851 3.207 0 3.81z" opacity="1" data-original="#fea613" class=""></path><path fill="#fea613" d="M445.872 246.036c-14.14 4.612-19.243 9.715-23.855 23.855-.604 1.851-3.206 1.851-3.81 0-4.612-14.14-9.715-19.243-23.855-23.855-1.851-.604-1.851-3.206 0-3.81 14.14-4.612 19.243-9.715 23.855-23.855.604-1.851 3.206-1.851 3.81 0 4.612 14.14 9.715 19.243 23.855 23.855 1.851.604 1.851 3.207 0 3.81z" opacity="1" data-original="#fea613" class=""></path><path fill="#fe9901" d="M407.527 235.888c-3.313 2.554-7.511 4.492-13.175 6.339-1.851.604-1.851 3.206 0 3.81 14.14 4.612 19.243 9.715 23.855 23.855.604 1.851 3.206 1.851 3.81 0 1.821-5.582 3.728-9.742 6.227-13.033-4.167-11.795-9.067-16.788-20.717-20.971z" opacity="1" data-original="#fe9901"></path><path fill="#fea613" d="M67.619 254.332c-13.048 4.302-17.858 9.113-22.161 22.161-.6 1.819-3.19 1.819-3.79 0-4.302-13.048-9.113-17.858-22.161-22.161-1.819-.6-1.819-3.19 0-3.79 13.048-4.302 17.858-9.113 22.161-22.161.6-1.819 3.19-1.819 3.79 0 4.302 13.048 9.113 17.858 22.161 22.161 1.819.599 1.819 3.19 0 3.79z" opacity="1" data-original="#fea613" class=""></path><path fill="#fe9901" d="M32.306 244.148c-3.169 2.623-7.229 4.558-12.799 6.394-1.819.6-1.819 3.19 0 3.79 13.048 4.302 17.858 9.113 22.161 22.161.6 1.819 3.19 1.819 3.79 0 1.836-5.569 3.771-9.63 6.394-12.799-3.923-10.957-8.589-15.623-19.546-19.546z" opacity="1" data-original="#fe9901"></path><path fill="#ffffff" d="M230.085 456.052c-8.054 2.885-11.475 6.306-14.36 14.36-.639 1.784-3.138 1.784-3.777 0-2.885-8.054-6.306-11.475-14.36-14.36-1.784-.639-1.784-3.138 0-3.777 8.054-2.885 11.475-6.306 14.36-14.36.639-1.784 3.138-1.784 3.777 0 2.885 8.054 6.306 11.475 14.36 14.36 1.785.639 1.785 3.138 0 3.777z" opacity="1" data-original="#ffffff"></path><path fill="#f3f0f3" d="M219.611 462.749c-2.885-8.054-6.306-11.475-14.36-14.36-.021-.008-.035-.023-.056-.031-1.986 1.554-4.433 2.78-7.607 3.917-1.784.639-1.784 3.138 0 3.777 8.054 2.885 11.475 6.306 14.36 14.36.639 1.784 3.138 1.784 3.777 0 1.137-3.174 2.363-5.621 3.917-7.607-.008-.021-.023-.035-.031-.056z" opacity="1" data-original="#f3f0f3"></path><path fill="#ffffff" d="M386.085 132.725c-8.054 2.885-11.475 6.306-14.36 14.36-.639 1.784-3.138 1.784-3.777 0-2.885-8.054-6.306-11.475-14.36-14.36-1.784-.639-1.784-3.138 0-3.777 8.054-2.885 11.475-6.306 14.36-14.36.639-1.784 3.138-1.784 3.777 0 2.885 8.054 6.306 11.475 14.36 14.36 1.785.639 1.785 3.138 0 3.777z" opacity="1" data-original="#ffffff"></path><path fill="#f3f0f3" d="M360.838 125.802c-.15-.054-.27-.137-.395-.215-1.847 1.296-4.069 2.364-6.856 3.362-1.784.639-1.784 3.138 0 3.777 8.054 2.885 11.475 6.306 14.36 14.36.639 1.784 3.138 1.784 3.777 0 1.021-2.85 2.114-5.112 3.451-6.983-2.879-8.01-6.303-11.424-14.337-14.301z" opacity="1" data-original="#f3f0f3"></path><path fill="#fea613" d="M196.476 488.475c-13.048 4.302-17.858 9.113-22.161 22.161-.6 1.819-3.19 1.819-3.79 0-4.302-13.048-9.113-17.858-22.161-22.161-1.819-.6-1.819-3.19 0-3.79 13.048-4.302 17.859-9.113 22.161-22.161.6-1.819 3.19-1.819 3.79 0 4.302 13.048 9.113 17.858 22.161 22.161 1.819.6 1.819 3.19 0 3.79z" opacity="1" data-original="#fea613" class=""></path><path fill="#fe9901" d="M161.333 478.157c-3.192 2.693-7.302 4.66-12.969 6.528-1.819.6-1.819 3.19 0 3.79 13.048 4.302 17.859 9.113 22.161 22.161.6 1.819 3.19 1.819 3.79 0 1.868-5.667 3.835-9.777 6.528-12.969-3.919-10.93-8.58-15.591-19.51-19.51z" opacity="1" data-original="#fe9901"></path><path fill="#ffffff" d="M394.339 380.649c-14.14 4.612-19.243 9.715-23.855 23.855-.604 1.851-3.206 1.851-3.81 0-4.612-14.14-9.715-19.243-23.855-23.855-1.851-.604-1.851-3.206 0-3.81 14.14-4.612 19.243-9.715 23.855-23.855.604-1.851 3.206-1.851 3.81 0 4.612 14.14 9.715 19.243 23.855 23.855 1.851.604 1.851 3.207 0 3.81z" opacity="1" data-original="#ffffff"></path><path fill="#f3f0f3" d="M355.862 370.604c-3.293 2.504-7.455 4.413-13.044 6.236-1.851.604-1.851 3.206 0 3.81 14.14 4.612 19.243 9.715 23.855 23.855.604 1.851 3.206 1.851 3.81 0 1.787-5.48 3.656-9.592 6.088-12.855-4.169-11.844-9.057-16.855-20.709-21.046z" opacity="1" data-original="#f3f0f3"></path><circle cx="252" cy="288" r="14.863" fill="#fed402" opacity="1" data-original="#fed402" class=""></circle><path fill="#fed402" d="m146.521 287.364-6.157 6.157a1.344 1.344 0 0 1-1.899 0l-6.157-6.157a1.344 1.344 0 0 1 0-1.899l6.157-6.157a1.344 1.344 0 0 1 1.899 0l6.157 6.157a1.344 1.344 0 0 1 0 1.899zM210.607 343.449l-6.157 6.157a1.344 1.344 0 0 1-1.899 0l-6.157-6.157a1.344 1.344 0 0 1 0-1.899l6.157-6.157a1.344 1.344 0 0 1 1.899 0l6.157 6.157a1.344 1.344 0 0 1 0 1.899zM405.607 155.449l-6.157 6.157a1.344 1.344 0 0 1-1.899 0l-6.157-6.157a1.344 1.344 0 0 1 0-1.899l6.157-6.157a1.344 1.344 0 0 1 1.899 0l6.157 6.157a1.344 1.344 0 0 1 0 1.899zM340.607 112.449l-6.157 6.157a1.344 1.344 0 0 1-1.899 0l-6.157-6.157a1.344 1.344 0 0 1 0-1.899l6.157-6.157a1.344 1.344 0 0 1 1.899 0l6.157 6.157a1.344 1.344 0 0 1 0 1.899z" opacity="1" data-original="#fed402" class=""></path><path fill="#ffffff" d="m225.607 371.449-6.157 6.157a1.344 1.344 0 0 1-1.899 0l-6.157-6.157a1.344 1.344 0 0 1 0-1.899l6.157-6.157a1.344 1.344 0 0 1 1.899 0l6.157 6.157a1.344 1.344 0 0 1 0 1.899z" opacity="1" data-original="#ffffff"></path></g></svg>